<?xml version="1.0" encoding="UTF-8"?>
<svg version="1.1" xmlns="http://www.w3.org/2000/svg" width="586" height="590">
<path d="M0 0 C0.89273621 -0.00571014 1.78547241 -0.01142029 2.70526123 -0.01730347 C3.67210342 -0.01842133 4.63894562 -0.01953918 5.63508606 -0.02069092 C6.66338531 -0.02565582 7.69168457 -0.03062073 8.75114441 -0.03573608 C12.149721 -0.05032857 15.54825088 -0.05715538 18.94685364 -0.06268311 C21.31471762 -0.06843757 23.68258159 -0.07419527 26.05044556 -0.07995605 C31.0159985 -0.09045818 35.98153529 -0.09630581 40.94709778 -0.09979248 C47.29430239 -0.10527121 53.64129184 -0.12928952 59.98842907 -0.15776443 C64.88106906 -0.17643568 69.77365773 -0.18159884 74.66633034 -0.18312836 C77.00538113 -0.18614598 79.34443122 -0.19414427 81.68344688 -0.20731354 C84.96436556 -0.2244653 88.24476511 -0.22247119 91.52571106 -0.21600342 C92.4824321 -0.2252182 93.43915314 -0.23443298 94.42486572 -0.243927 C105.78849158 -0.1741395 116.44630411 3.28557803 124.66950989 11.36700439 C133.85993859 22.08917121 134.99747441 33.0806533 134.92146301 46.74420166 C134.92689333 48.39460871 134.93402107 50.04501091 134.94270325 51.69540405 C134.96083006 56.14788399 134.95391381 60.59999029 134.9411869 65.05247617 C134.93100544 69.72828703 134.94046664 74.40406754 134.94673157 79.07987976 C134.95399234 86.92849425 134.94446087 94.77695778 134.92536926 102.62554932 C134.90359595 111.68078436 134.91066154 120.73565916 134.93267488 129.79088551 C134.95086469 137.58740863 134.95336997 145.38382372 134.94292021 153.18036121 C134.9367059 157.82738357 134.93579272 162.47423695 134.94906616 167.12124825 C134.96067663 171.49058534 134.95250479 175.85946076 134.92948914 180.22874832 C134.92422998 181.82581887 134.92566759 183.42292872 134.93453979 185.01998329 C135.00277364 198.55730255 132.61309775 208.51618969 123.27888489 218.70294189 C117.13250416 224.69002118 109.24658491 228.23619836 100.67573547 228.29434204 C99.72836517 228.3029425 98.78099487 228.31154297 97.80491638 228.32040405 C96.25579056 228.32679398 96.25579056 228.32679398 94.67536926 228.33331299 C93.58215363 228.34149048 92.48893799 228.34966797 91.3625946 228.35809326 C87.74094689 228.38292405 84.11933841 228.39946038 80.49763489 228.41387939 C79.25856888 228.41920307 78.01950287 228.42452675 76.7428894 228.43001175 C71.53054903 228.45123878 66.3182145 228.47036651 61.10584259 228.48163414 C53.66392865 228.49783243 46.22254014 228.53091371 38.78082418 228.58803499 C32.89901347 228.63162376 27.01736353 228.64740149 21.13540649 228.65376663 C18.64447293 228.66046122 16.15354646 228.67563616 13.66271973 228.69965744 C-15.57187122 228.96543373 -15.57187122 228.96543373 -27.69377136 217.23809814 C-37.30074139 206.64478623 -38.04292824 194.75856273 -37.98429871 181.01739502 C-37.98837065 179.40654648 -37.993716 177.79570075 -38.00022888 176.18486023 C-38.01383433 171.83567563 -38.008632 167.48670599 -37.99909163 163.13751793 C-37.99145976 158.57114487 -37.99855039 154.00478936 -38.00325012 149.43841553 C-38.00869744 141.77216308 -38.00154299 134.10599753 -37.98722839 126.4397583 C-37.97090386 117.59533807 -37.97619309 108.75112536 -37.99270761 99.90671015 C-38.00635171 92.29280915 -38.00822787 84.67897037 -38.0003916 77.06506109 C-37.99573113 72.52647853 -37.99504525 67.9879933 -38.00500107 63.44941711 C-38.01371115 59.18112101 -38.00757557 54.91309068 -37.9903183 50.64482307 C-37.98637493 49.08483889 -37.98745034 47.52483207 -37.99410629 45.9648571 C-38.04794446 32.05708081 -36.23567619 21.38004512 -26.55705261 10.94122314 C-19.12271964 3.83526177 -10.33727369 0.03985948 0 0 Z " fill="#010101" transform="translate(234.5961151123047,197.85955810546875)"/>
<path d="M0 0 C7.58735966 5.44118471 13.38205987 12.93747792 15.1796875 22.25 C16.11496036 31.41567404 15.42309891 40.14218736 9.97265625 47.87109375 C5.53277023 53.13318089 1.05963177 57.77223626 -5.48486328 60.1550293 C-6.20642609 60.41954391 -6.92798889 60.68405853 -7.67141724 60.95658875 C-8.22199799 61.1552504 -8.77257874 61.35391205 -9.33984375 61.55859375 C-9.34342628 62.66293825 -9.34342628 62.66293825 -9.34708118 63.78959274 C-9.40634402 81.74442388 -9.48196585 99.69911888 -9.57555866 117.65380478 C-9.62043025 126.33673637 -9.6598646 135.01962774 -9.6862793 143.70263672 C-9.70932958 151.2750856 -9.74280546 158.84740627 -9.78854531 166.41975331 C-9.8123832 170.42532931 -9.83117352 174.43077906 -9.83745766 178.43642426 C-9.84355157 182.21546113 -9.86370441 185.99417538 -9.89411926 189.77309227 C-9.90694933 191.8032441 -9.9053414 193.83347157 -9.90312195 195.86366272 C-10.03559689 208.92872503 -12.23980801 220.60349995 -21.15625 230.59375 C-30.86565635 239.83239725 -42.2958917 240.71709567 -55.08203125 240.65625 C-56.76729416 240.65412758 -56.76729416 240.65412758 -58.48660278 240.65196228 C-62.06271058 240.64638039 -65.63875498 240.63383116 -69.21484375 240.62109375 C-71.64453034 240.61607641 -74.07421792 240.61151391 -76.50390625 240.60742188 C-82.44924026 240.59641689 -88.39453747 240.57969676 -94.33984375 240.55859375 C-94.62085938 241.16574219 -94.901875 241.77289063 -95.19140625 242.3984375 C-97.88897266 247.47243147 -102.75145285 251.5565167 -108.07421875 253.6171875 C-115.71968989 255.8212049 -124.21081022 255.67099361 -131.33984375 251.94921875 C-137.39233129 247.74084851 -141.94183597 241.86349925 -143.33984375 234.55859375 C-144.32278068 224.31389896 -142.63224319 216.47576928 -136.19921875 208.38671875 C-131.18767275 203.45940041 -124.52233141 200.89677085 -117.55859375 200.4921875 C-110.22896893 200.71156007 -103.99502431 202.83205337 -98.33984375 207.55859375 C-94.28843713 211.91542792 -92.16236603 215.90357023 -90.33984375 221.55859375 C-84.22006394 221.60824249 -78.10040289 221.64443091 -71.98046875 221.66845703 C-69.90102087 221.67847925 -67.82158696 221.69210062 -65.7421875 221.70947266 C-62.74345439 221.73388763 -59.74490855 221.74511492 -56.74609375 221.75390625 C-55.82493774 221.76422882 -54.90378174 221.77455139 -53.95471191 221.78518677 C-47.00775824 221.78637887 -41.06013859 221.25236224 -35.02734375 217.49609375 C-28.2885957 210.13048541 -28.89530251 200.70513111 -28.9074707 191.22631836 C-28.8984395 189.79642904 -28.88810898 188.36654744 -28.87658691 186.93667603 C-28.84914995 183.07987314 -28.83975064 179.22321769 -28.83373284 175.36632991 C-28.8243143 171.32640099 -28.79810825 167.2865807 -28.77372742 163.24671936 C-28.73015408 155.60781662 -28.70155095 147.96893507 -28.67840403 140.3299461 C-28.65130306 131.62851 -28.60739468 122.92718368 -28.56211531 114.22582614 C-28.46940041 96.33680674 -28.39765963 78.44775829 -28.33984375 60.55859375 C-29.10554688 60.42710938 -29.87125 60.295625 -30.66015625 60.16015625 C-37.04711815 58.72634848 -42.31966069 53.5545494 -46.33984375 48.55859375 C-51.46607182 39.41784972 -52.79138755 29.95362093 -50.76171875 19.61328125 C-48.15644743 11.3000973 -43.04429729 4.55484161 -35.671875 -0.140625 C-24.35723678 -5.97342963 -11.11047117 -6.84434702 0 0 Z M-28.33984375 18.55859375 C-31.62912205 22.01233597 -32.63964979 24.83733683 -32.96484375 29.49609375 C-32.77733562 34.27755105 -31.29348714 36.76890777 -28.04296875 40.18359375 C-24.32478399 43.18543099 -21.1999766 44.01493599 -16.36328125 43.87109375 C-11.66274631 43.14514241 -8.95546901 40.271423 -5.96484375 36.80859375 C-4.01910374 32.91711373 -3.5319661 29.78567077 -4.33984375 25.55859375 C-5.70964156 21.88138252 -7.57426107 19.17933646 -10.65234375 16.68359375 C-17.59163352 13.77877478 -22.31242247 14.25702845 -28.33984375 18.55859375 Z " fill="#0D0D0D" transform="translate(534.33984375,14.44140625)"/>
<path d="M0 0 C5.19001286 4.26734391 9.52284065 9.60627137 10.8125 16.3125 C11.7091994 26.07811688 9.99138289 32.45067911 4.6875 40.5625 C-1.08210253 46.08125025 -8.20378499 49.22212175 -16.203125 49.3671875 C-24.60206288 48.90057984 -30.83190342 47.50851653 -37 41.56640625 C-39.61073949 38.64815177 -41.46782926 35.82578143 -43.1875 32.3125 C-50.61153155 32.24272963 -58.03549142 32.1895524 -65.45978546 32.15706348 C-68.90787914 32.14146372 -72.35574712 32.12033107 -75.80371094 32.08618164 C-79.77536235 32.04709545 -83.74692505 32.03274371 -87.71875 32.01953125 C-88.94613892 32.00404739 -90.17352783 31.98856354 -91.43811035 31.97261047 C-99.44387512 31.97104744 -105.833965 32.257057 -112 37.875 C-118.44862585 46.8163826 -117.586125 57.99764889 -117.48046875 68.4765625 C-117.47486297 70.12136444 -117.47059752 71.76617145 -117.46760559 73.41098022 C-117.45623404 77.70837605 -117.42683457 82.00546035 -117.39349365 86.30273438 C-117.3626255 90.70047799 -117.34906472 95.09827268 -117.33398438 99.49609375 C-117.30195624 108.10170434 -117.25085485 116.70706325 -117.1875 125.3125 C-116.50913086 125.63790771 -115.83076172 125.96331543 -115.13183594 126.29858398 C-114.23754883 126.73501221 -113.34326172 127.17144043 -112.421875 127.62109375 C-111.09494629 128.26389282 -111.09494629 128.26389282 -109.74121094 128.91967773 C-101.66892739 133.3223907 -97.24326354 140.8299457 -94.1875 149.3125 C-91.94325085 159.71879493 -93.23291165 170.01441471 -98.875 179.125 C-105.00471667 187.45899903 -112.92648364 193.27566904 -123.1875 195.3125 C-134.66583955 196.18768131 -143.63195869 194.25159196 -152.92578125 187.3359375 C-156.52059521 184.11985178 -158.89817692 180.52728024 -161.1875 176.3125 C-161.785625 175.24 -162.38375 174.1675 -163 173.0625 C-166.05673032 163.4096674 -165.93352433 153.74214745 -162.1875 144.3125 C-157.67963432 135.80847232 -151.14670631 129.05973641 -142.03100586 125.72045898 C-141.3110997 125.45530991 -140.59119354 125.19016083 -139.84947205 124.91697693 C-139.30102127 124.71749954 -138.7525705 124.51802216 -138.1875 124.3125 C-138.18163376 123.39954163 -138.17576752 122.48658325 -138.16972351 121.54595947 C-138.11155869 112.89643682 -138.03934777 104.24716588 -137.95178509 95.59788895 C-137.90726381 91.15235495 -137.86796875 86.70690876 -137.84106445 82.26123047 C-137.81484785 77.96219461 -137.77431935 73.66350003 -137.72431374 69.36467743 C-137.70776806 67.73348013 -137.69617789 66.10222397 -137.68988609 64.4709549 C-137.62610195 49.43885588 -136.18465455 34.52477859 -125.5 23 C-114.97120098 13.18501786 -103.03289344 12.03469833 -89.2734375 12.21484375 C-87.24374081 12.22111926 -85.21410202 12.22083722 -83.18439674 12.22064304 C-78.21000237 12.220786 -73.23660509 12.2361848 -68.26269531 12.30883789 C-64.7839025 12.35828721 -61.30739421 12.36376672 -57.8283577 12.34070015 C-55.87282614 12.33985961 -53.91745627 12.38614879 -51.9624939 12.43333435 C-45.4424198 12.53408802 -45.4424198 12.53408802 -40.10188293 9.31582642 C-38.46591936 6.93874083 -38.46591936 6.93874083 -37.27384949 4.45570374 C-35.80210835 1.55218038 -33.94675237 0.35082459 -31.125 -1.1875 C-30.30902344 -1.6515625 -29.49304688 -2.115625 -28.65234375 -2.59375 C-18.93364991 -6.90632413 -9.05105957 -4.79173742 0 0 Z M-143.60546875 150.07421875 C-146.27719551 154.56964978 -146.7614427 158.70401177 -146 163.84375 C-144.34747694 168.86487774 -140.71869306 172.75287599 -136.25390625 175.50390625 C-131.62048996 177.31698219 -126.46110469 177.23722661 -121.86328125 175.3671875 C-117.86340451 173.01605847 -114.89835715 170.74060085 -113.1875 166.3125 C-111.7181736 160.18066544 -111.95561309 155.91443732 -115.1875 150.3125 C-118.49519046 146.49593408 -121.41714405 143.76009152 -126.484375 142.94140625 C-133.74072533 142.74497638 -138.9390882 144.27659443 -143.60546875 150.07421875 Z " fill="#0D0D0D" transform="translate(167.1875,356.6875)"/>
<path d="M0 0 C4.61606295 3.85655099 6.7166205 6.43764604 8.5078125 12.23046875 C9.23284973 12.22380692 9.95788696 12.21714508 10.70489502 12.21028137 C17.58826133 12.1497929 24.47158714 12.10430453 31.35515213 12.07503223 C34.89280933 12.05947631 38.43024416 12.03842638 41.96777344 12.00415039 C46.04884796 11.96486213 50.12969445 11.95067649 54.2109375 11.9375 C55.46142883 11.92201614 56.71192017 11.90653229 58.00030518 11.89057922 C71.02324353 11.88812083 81.69713876 14.03518143 91.44140625 23.01171875 C103.41558602 35.57816977 103.81147387 51.26918829 103.703125 67.61328125 C103.69938794 69.28050567 103.69654425 70.9477323 103.69454956 72.61495972 C103.68696762 76.97145816 103.66736683 81.32782008 103.6451416 85.68426514 C103.62456501 90.1423559 103.61552275 94.60046904 103.60546875 99.05859375 C103.58411501 107.78261425 103.55004599 116.50652445 103.5078125 125.23046875 C104.44568604 125.37291016 105.38355957 125.51535156 106.34985352 125.66210938 C114.34739082 127.1014806 120.46590039 132.32231744 125.03515625 138.8359375 C131.01425465 148.55791978 132.42352701 159.05101353 129.8125 170.19921875 C126.24382964 179.91559855 119.76418832 187.39238567 110.6171875 192.23046875 C101.4966886 196.35452043 91.34112513 196.46908606 81.921875 193.26953125 C71.92659705 188.9673566 65.45334036 182.28250329 61.26953125 172.34375 C57.92424435 163.06272328 58.42153756 152.20485371 62.5078125 143.23046875 C67.52701125 134.6305955 74.42415943 129.02373682 83.5078125 125.23046875 C83.57757408 115.75481143 83.63075584 106.27924364 83.66324902 96.80338478 C83.67885054 92.40252177 83.69998702 88.00183553 83.73413086 83.60107422 C83.76692235 79.3476019 83.7847069 75.09429874 83.79244423 70.84070969 C83.79795245 69.22453527 83.80870792 67.60836926 83.82500267 65.99226761 C84.13065349 51.12809612 84.13065349 51.12809612 78.2578125 37.79296875 C71.30942556 31.31833546 63.98863005 31.76495513 54.91796875 31.71875 C52.96847572 31.6918232 52.96847572 31.6918232 50.979599 31.66435242 C47.54545066 31.61708158 44.11136696 31.58712503 40.67700195 31.56091309 C37.16409546 31.53099089 33.6514112 31.48450104 30.13867188 31.43945312 C23.26184588 31.35368155 16.38494567 31.28622088 9.5078125 31.23046875 C9.20689697 32.17970215 8.90598145 33.12893555 8.59594727 34.10693359 C6.56258075 39.94379497 1.93102323 43.76168305 -3.4296875 46.66796875 C-11.10189826 49.70790132 -21.77143432 49.70165528 -29.4921875 46.79296875 C-35.98388677 43.30414764 -41.20135853 37.21152576 -43.4921875 30.23046875 C-45.12631723 22.27067555 -44.66379056 15.12437768 -40.6796875 7.98046875 C-36.04192151 2.15013436 -31.37684891 -2.18531674 -24.1796875 -4.51953125 C-15.32351467 -5.34336128 -7.48876567 -5.31725838 0 0 Z M81.1328125 149.91796875 C78.77739307 154.71940066 77.61953519 159.15184303 79.13671875 164.41015625 C81.33062066 169.27529437 84.16803054 172.1833878 88.5078125 175.23046875 C92.58097748 176.58819041 96.2489689 176.74912723 100.5078125 176.23046875 C105.36963627 173.79955687 108.31522857 170.51765289 111.5078125 166.23046875 C113.17447833 161.23047125 113.08405111 156.94392788 111.0078125 152.10546875 C108.50659342 147.61027082 105.32240712 145.02252198 100.5078125 143.23046875 C92.37037217 141.79145348 86.63660638 143.68999147 81.1328125 149.91796875 Z " fill="#0D0D0D" transform="translate(430.4921875,356.76953125)"/>
<path d="M0 0 C7.47187984 5.78615085 13.21540013 13.5645908 15 23 C15.74076354 31.85273149 14.63431245 38.90392004 11 47 C11.67804688 47.22042969 12.35609375 47.44085938 13.0546875 47.66796875 C16.85852105 49.38827013 19.84603189 51.7546683 23.125 54.3125 C29.14744442 58.92467405 35.27814213 63.31447485 41.5625 67.5625 C47.26509602 71.42280662 52.90719375 75.33376053 58.4375 79.4375 C65.85074195 84.93663823 73.40823285 90.21889255 80.98046875 95.49609375 C84.99888543 98.29666755 89.00248302 101.11733566 92.99853516 103.94970703 C95.75020727 105.89852679 98.50821847 107.83824624 101.26708984 109.77685547 C102.76377731 110.83326632 104.25186442 111.90184242 105.73828125 112.97265625 C118.25286053 121.76960576 132.39466947 121.14806144 147.125 121.5625 C148.57292622 121.60580156 150.02084302 121.64941906 151.46875 121.69335938 C154.97906578 121.79921106 158.48948913 121.90080239 162 122 C162.1853833 121.39454346 162.3707666 120.78908691 162.56176758 120.1652832 C162.9430481 118.96391724 162.9430481 118.96391724 163.33203125 117.73828125 C163.7029187 116.55165894 163.7029187 116.55165894 164.08129883 115.34106445 C166.56438476 109.01358346 171.12579655 105.46758736 177.16796875 102.7265625 C183.73453088 100.12233957 191.47889562 99.86828526 198.25 102.0625 C205.20229246 105.16206372 210.18377793 110.2252689 213.30859375 117.10546875 C215.91910214 124.25855671 215.83960304 131.59152647 213.1640625 138.73046875 C209.7988233 145.29155592 204.58828046 150.80417776 197.61328125 153.40625 C189.09126769 155.34249224 181.16181191 154.88479755 173.37890625 150.875 C171 149 171 149 169.8671875 147.0559082 C167.80520656 143.81384748 165.95071869 141.44254181 162.04971313 140.55755615 C156.01469383 139.88137133 149.93628851 140.07150715 143.875 140.1875 C140.24728517 140.22245588 136.62006247 140.23525151 132.9921875 140.23046875 C132.1190239 140.22950699 131.24586029 140.22854523 130.34623718 140.22755432 C109.14890392 139.99586678 94.15874918 128.75532509 77.59375 116.85546875 C73.35861207 113.82581436 69.08364249 110.85355989 64.8125 107.875 C55.16598646 101.12693424 45.54895176 94.33749831 35.93652344 87.54101562 C35.25364258 87.05826172 34.57076172 86.57550781 33.8671875 86.078125 C33.17874756 85.59142334 32.49030762 85.10472168 31.78100586 84.60327148 C30.39200554 83.62246718 29.0022012 82.64280046 27.61157227 81.66430664 C23.61375064 78.85129816 19.63064126 76.01946658 15.66015625 73.16796875 C13.85685859 71.88268937 12.05347463 70.59753106 10.25 69.3125 C9.40397217 68.69971191 8.55794434 68.08692383 7.6862793 67.45556641 C6.88746338 66.8888623 6.08864746 66.3221582 5.265625 65.73828125 C4.56211914 65.23337158 3.85861328 64.72846191 3.13378906 64.20825195 C0.69750192 62.82871133 -1.21636303 62.27306419 -4 62 C-5.0725 62.474375 -6.145 62.94875 -7.25 63.4375 C-15.20772218 66.70530987 -26.51792863 66.35585668 -34.5625 63.375 C-44.36203203 58.6000158 -50.84519842 51.96507843 -54.875 41.75 C-57.74131097 31.89812875 -56.56653015 22.09038244 -52 13 C-47.34149124 4.97150618 -39.78402427 -2.03435776 -30.703125 -4.55859375 C-19.84286511 -6.33201769 -9.55737164 -5.94557422 0 0 Z M-32.8125 17.25 C-36.23629721 21.55420221 -38.37389643 25.4851407 -37.9375 31.0625 C-36.86659913 36.84090262 -34.00720213 40.53841619 -29.25 43.875 C-24.8889695 46.38786144 -21.98284349 46.64294755 -17 46 C-11.63509274 44.17593153 -7.82379436 40.87995529 -5 36 C-3.43197397 30.90598952 -3.40869172 26.50269486 -5.625 21.625 C-8.55499995 16.6986272 -11.79806907 14.14481953 -17.3125 12.5625 C-23.62805747 11.38555751 -27.91171508 13.32937206 -32.8125 17.25 Z " fill="#0D0D0D" transform="translate(60,26)"/>
<path d="M0 0 C8.37996407 6.00564092 12.17043925 12.6883775 14.53125 22.4921875 C15.79459671 22.46340263 15.79459671 22.46340263 17.08346558 22.43403625 C25.0562347 22.25523471 33.02914291 22.09192114 41.00257683 21.94559956 C45.10090788 21.86985487 49.19894612 21.78831809 53.296875 21.69311523 C57.25837379 21.6013022 61.21990145 21.52526448 65.1819191 21.45973778 C66.68653616 21.4321617 68.19106379 21.39909046 69.69543076 21.36019325 C81.12979717 21.06982028 90.97237523 21.86210846 100.55078125 28.609375 C104.76658134 32.6172954 108.41715677 39.614505 108.59094238 45.52095032 C108.56157593 46.29561142 108.53220947 47.07027252 108.50195312 47.8684082 C108.47282837 48.7497493 108.44370361 49.63109039 108.41369629 50.53913879 C108.38030151 51.48915268 108.34690674 52.43916656 108.3125 53.41796875 C108.26575134 55.43158462 108.22156063 57.44526121 108.1796875 59.45898438 C108.1119045 62.63373397 108.0312306 65.80518397 107.90722656 68.97827148 C107.79181865 72.04206545 107.73459864 75.10245928 107.6875 78.16796875 C107.63791138 79.11190994 107.58832275 80.05585114 107.53723145 81.02839661 C107.5251231 83.78877264 107.62107314 85.88222774 108.53125 88.4921875 C110.63792194 90.50338143 112.70206642 91.83445609 115.26257324 93.21305847 C120.69040595 96.27338796 124.16524963 101.47826968 126.0625 107.328125 C127.636364 114.59413048 126.9166723 121.85293175 123.53125 128.4921875 C119.04226805 135.02267028 113.48590351 139.93018281 105.53125 141.4921875 C95.77154803 142.35375309 89.38602463 140.66646322 81.28125 135.3671875 C76.05728309 129.90576755 72.8958649 123.30166812 72.46875 115.70703125 C72.69463825 107.70211652 75.33120129 101.58838973 80.53125 95.4921875 C86.13731061 90.4921875 86.13731061 90.4921875 89.53125 90.4921875 C89.58075439 84.60230734 89.6170192 78.7125488 89.64111328 72.82250977 C89.65115963 70.81955861 89.66479909 68.81662208 89.68212891 66.8137207 C89.70643713 63.93176662 89.71774687 61.05000678 89.7265625 58.16796875 C89.73688507 57.27507645 89.74720764 56.38218414 89.75784302 55.4622345 C89.81229249 49.21364286 89.81229249 49.21364286 87.53125 43.4921875 C84.02076263 41.1346183 80.8017738 41.2181284 76.65136719 41.17333984 C75.96803314 41.16329422 75.2846991 41.1532486 74.58065796 41.14289856 C72.32982192 41.11209352 70.07910469 41.09503921 67.828125 41.078125 C66.26441426 41.05941116 64.7007136 41.03983758 63.13702393 41.0194397 C59.02716006 40.96813517 54.91726345 40.92850055 50.80725098 40.89129639 C46.61100173 40.85124617 42.41488844 40.80015848 38.21875 40.75 C29.98967625 40.65326061 21.76053516 40.56884956 13.53125 40.4921875 C13.38953369 41.27158691 13.24781738 42.05098633 13.10180664 42.85400391 C11.43066488 50.58115744 4.87634909 57.15317658 -1.46875 61.4921875 C-11.31138792 66.7235734 -20.78567371 67.53588483 -31.46875 64.4921875 C-41.16559006 60.72669924 -48.9728183 55.04398378 -53.46875 45.4921875 C-57.80123571 33.73009777 -57.32153641 24.07857398 -52.46875 12.4921875 C-47.50983274 3.8718935 -39.60435925 -2.24850317 -30.04296875 -5.03515625 C-19.23530312 -7.0195683 -9.38518909 -5.73209334 0 0 Z M-33.78125 20.0546875 C-36.9462727 24.62638695 -37.08775962 29.10949516 -36.46875 34.4921875 C-34.82646269 39.76424357 -31.42505797 42.95327526 -26.67578125 45.60546875 C-22.0285524 47.47258547 -17.9089476 47.47258547 -13.26171875 45.60546875 C-8.49558201 42.94385992 -5.1422882 39.76541165 -3.46875 34.4921875 C-2.60836497 28.82551369 -3.18530723 24.30790356 -6.46875 19.4921875 C-10.67401989 15.35420193 -13.80764639 13.33311778 -19.71875 13.1796875 C-26.25654473 13.2480566 -29.41849544 15.2202838 -33.78125 20.0546875 Z " fill="#0C0C0C" transform="translate(217.46875,38.5078125)"/>
<path d="M0 0 C5.65509809 4.96364505 8.35654007 10.83444664 9.28125 18.2578125 C9.61662406 26.27884209 7.46668235 32.61525315 2.375 38.8125 C-3.73910696 45.14813257 -9.16662099 47.1823969 -17.9375 47.5625 C-25.50413302 47.31762514 -31.29328568 45.45960003 -36.875 40.25 C-40.18829703 36.55439947 -43 33.11113069 -43 28 C-51.80665003 28.08478237 -60.61311512 28.17980855 -69.41951466 28.28752708 C-73.50970452 28.33724401 -77.59987159 28.38357387 -81.69018555 28.421875 C-85.645514 28.45904158 -89.60063938 28.50548148 -93.55579185 28.55806351 C-95.0566415 28.57644236 -96.5575344 28.59160959 -98.0584507 28.60334396 C-110.747139 28.36477573 -110.747139 28.36477573 -123 31 C-126.21704455 34.51310971 -127.09701617 37.77934414 -127.31640625 42.44921875 C-127.37924805 43.72055664 -127.37924805 43.72055664 -127.44335938 45.01757812 C-127.48267578 45.89865234 -127.52199219 46.77972656 -127.5625 47.6875 C-127.62727539 49.02651367 -127.62727539 49.02651367 -127.69335938 50.39257812 C-127.79935353 52.59490108 -127.90142051 54.79733473 -128 57 C-127.27425781 57.11601562 -126.54851562 57.23203125 -125.80078125 57.3515625 C-117.11656226 59.36213482 -111.4436186 64.98791188 -106.62890625 72.21484375 C-101.15074176 81.58158544 -100.40512401 91.78917028 -103.125 102.3125 C-106.2043709 111.16390099 -113.18100352 119.06829185 -121.55859375 123.2890625 C-131.35939336 127.33753545 -140.82756074 128.31559027 -151 125 C-161.26690143 120.67248353 -167.74874707 113.78174839 -172.08984375 103.61328125 C-175.34258688 94.27386 -174.51554173 85.15891135 -171 76 C-166.13199499 66.60327517 -159.07963787 60.32081093 -149 57 C-148.01 57 -147.02 57 -146 57 C-146.02094727 56.3608667 -146.04189453 55.7217334 -146.06347656 55.06323242 C-146.80356711 29.08745959 -146.80356711 29.08745959 -139.625 19.5625 C-128.96159831 9.15298883 -116.52046735 9.57681559 -102.5234375 9.70703125 C-100.74411377 9.71263591 -98.96478536 9.71690189 -97.18545532 9.71989441 C-92.53296828 9.73127472 -87.88076825 9.76068218 -83.22839355 9.79400635 C-78.4687081 9.82485522 -73.70897565 9.83843123 -68.94921875 9.85351562 C-59.63268734 9.88555928 -50.31636766 9.93667187 -41 10 C-40.70053467 9.21447754 -40.40106934 8.42895508 -40.0925293 7.61962891 C-37.93353029 2.44285588 -33.52931209 -1.56671185 -28.4375 -3.875 C-18.14149527 -7.24460155 -8.83606494 -6.53394841 0 0 Z M-152 84 C-154.71202371 88.56113078 -154.20235705 92.99607287 -153 98 C-150.87861248 102.32436687 -148.39906457 105.08588548 -144.0546875 107.3046875 C-139.40111578 108.87947032 -134.59888422 108.87947032 -129.9453125 107.3046875 C-124.63867222 104.59442916 -121.84620625 100.53861874 -120 95 C-119.4185281 89.06898664 -120.47318233 84.74878548 -124 80 C-127.7618206 76.48443854 -131.4617125 74.70896948 -136.625 74.5 C-143.8882473 74.97423264 -147.80496511 78.17356266 -152 84 Z " fill="#0A0A0A" transform="translate(265,451)"/>
<path d="M0 0 C2.5 2.6875 2.5 2.6875 4 5 C4.66 5.99 5.32 6.98 6 8 C8.13784134 8.44834611 8.13784134 8.44834611 10.64233398 8.36889648 C11.60771591 8.37577988 12.57309784 8.38266327 13.56773376 8.38975525 C14.61659256 8.38359695 15.66545135 8.37743866 16.74609375 8.37109375 C18.96810035 8.3884945 21.19010553 8.40607865 23.41210938 8.42382812 C26.91401018 8.43385242 30.41581013 8.43751065 33.91772461 8.43579102 C37.29831675 8.4393902 40.67813989 8.4668618 44.05859375 8.49609375 C45.08923447 8.48791122 46.11987518 8.4797287 47.18174744 8.47129822 C56.4119352 8.56451071 65.65246875 10.60285364 72.50390625 17.19140625 C81.60624492 28.19501671 81.36642897 42.42177103 81 56 C81.72445312 56.1134375 82.44890625 56.226875 83.1953125 56.34375 C92.06722352 58.4196289 98.28870317 64.48029782 103 72 C107.52724798 80.36956176 108.26537195 89.88657646 106.3515625 99.1328125 C103.0890393 110.03577466 97.47786198 116.87296071 87.69140625 122.625 C79.32701789 126.8982434 69.92883923 127.25092986 60.875 124.875 C51.30652846 121.61474425 43.9684061 115.42224302 38.6796875 106.86328125 C34.59553465 98.45221122 34.67679895 88.01312668 36.66015625 79 C40.39763355 68.64508455 47.22066567 61.78708673 57 57 C57.99 56.67 58.98 56.34 60 56 C62.47501337 48.57495989 62.05848672 38.22915044 59 31 C51.31359187 27.30793317 41.55685136 28.39418151 33.22363281 28.29980469 C31.0741051 28.26659478 28.92480235 28.2118909 26.77636719 28.13574219 C14.89915058 27.08828325 14.89915058 27.08828325 4.38256836 31.15625 C2.76977635 33.74766732 2.76977635 33.74766732 1.93725586 36.49707031 C0.25135236 40.99925386 -3.86503502 42.92526318 -8 45 C-15.57838385 47.92499026 -22.33044879 47.75763436 -29.83203125 44.96875 C-37.34843382 41.61006921 -41.65863082 36.68451821 -44.78515625 29.09375 C-46.92008869 22.1941008 -46.33637982 14.43505656 -43.5 7.8125 C-39.90033897 1.41749781 -33.90630256 -3.62985676 -27 -6 C-16.90380751 -8.64424089 -8.11839126 -6.27398952 0 0 Z M60.45703125 77.3984375 C56.24698486 82.26283128 54.47701193 86.26494056 54.61328125 92.6171875 C55.43555042 97.6836945 58.40193375 101.54293959 62.125 104.9375 C66.83525427 107.60664409 71.73511569 107.59137546 77 107 C81.98669007 104.50665497 85.49675474 101.00649051 88 96 C88.72218508 88.86102291 88.44960235 83.73764514 84 78 C77.0465259 71.99472691 67.51876586 70.99818182 60.45703125 77.3984375 Z " fill="#0C0C0C" transform="translate(337,452)"/>
<path d="M0 0 C8.39170852 5.62644076 13.48199893 13.77771074 15.484375 23.61328125 C16.76666728 34.22854619 14.7551809 42.81629533 8.86328125 51.75 C2.7939284 59.39613318 -4.57526345 63.80529723 -14.13671875 65.75 C-25.65038588 66.76277628 -35.15909261 64.09063097 -44.13671875 56.75 C-48.64222851 52.47528473 -51.87416427 47.53947764 -54.13671875 41.75 C-54.13671875 41.09 -54.13671875 40.43 -54.13671875 39.75 C-75.25671875 39.75 -96.37671875 39.75 -118.13671875 39.75 C-118.79671875 41.73 -119.45671875 43.71 -120.13671875 45.75 C-124.31225949 51.75233981 -130.13539232 55.02014011 -137.13671875 56.75 C-145.59900102 57.92263054 -153.25337822 56.36105257 -160.17578125 51.2421875 C-165.55182041 46.32368359 -168.64241244 40.85732872 -169.515625 33.6015625 C-169.8279052 24.95845247 -167.96037451 19.18717334 -163.38671875 12 C-156.8048323 5.41811355 -150.23846551 3.40258463 -141.04516602 3.3671875 C-133.78109654 3.53463874 -128.30629991 5.47000311 -123.23046875 10.72265625 C-120.52885132 14.13153674 -119.20852537 16.46277353 -118.13671875 20.75 C-97.01671875 20.75 -75.89671875 20.75 -54.13671875 20.75 C-53.80671875 18.77 -53.47671875 16.79 -53.13671875 14.75 C-48.26616107 5.48888162 -40.90348286 -0.95603417 -31.10546875 -4.5546875 C-20.04723371 -7.14464255 -9.75026048 -5.70399151 0 0 Z M-33.44921875 20.375 C-36.77456035 25.05511039 -36.71980885 29.12191294 -36.13671875 34.75 C-34.54612919 40.038457 -31.08609523 43.21495859 -26.34375 45.86328125 C-21.69652115 47.73039797 -17.57691635 47.73039797 -12.9296875 45.86328125 C-8.16355076 43.20167242 -4.81025695 40.02322415 -3.13671875 34.75 C-2.27633372 29.08332619 -2.85327598 24.56571606 -6.13671875 19.75 C-10.34198864 15.61201443 -13.47561514 13.59093028 -19.38671875 13.4375 C-25.94033086 13.50603451 -29.12819871 15.47005833 -33.44921875 20.375 Z " fill="#0D0D0D" transform="translate(558.13671875,282.25)"/>
<path d="M0 0 C6.5984933 5.06786685 10.24037362 10.72411729 13.25 18.375 C20.42113879 18.57791281 27.59153759 18.71796574 34.76489258 18.81445312 C37.20462709 18.85467477 39.6441689 18.90926154 42.08325195 18.97851562 C45.5911406 19.07561981 49.0964811 19.1209407 52.60546875 19.15625 C53.69522507 19.19754028 54.78498138 19.23883057 55.90776062 19.28137207 C58.89753408 19.28314203 61.37899858 19.21441224 64.25 18.375 C66.64206774 15.9786392 67.85123405 13.41892331 69.25 10.375 C74.66352785 4.97190284 80.49598063 2.35324007 88.125 2.0625 C96.18506207 2.2796873 101.59702028 4.94323393 107.48828125 10.40625 C112.95007815 16.50989886 114.64143182 23.64052911 114.5234375 31.65234375 C113.7881512 38.97369447 110.68231452 45.00597131 105.21875 49.90234375 C98.98089525 54.56835812 93.02468406 56.1233495 85.2421875 55.81640625 C77.14549842 54.62198606 71.69346259 50.47840849 66.52734375 44.33984375 C65.25 42.375 65.25 42.375 64.25 38.375 C39.005 38.87 39.005 38.87 13.25 39.375 C11.93 42.345 10.61 45.315 9.25 48.375 C4.93885752 56.08770866 -1.49853446 60.25700561 -9.578125 63.515625 C-13.25256002 64.51116158 -16.71891551 64.75904782 -20.5 64.75 C-21.20302246 64.74838867 -21.90604492 64.74677734 -22.63037109 64.74511719 C-28.63767402 64.6044826 -33.46336924 63.29736019 -38.75 60.375 C-40.3278125 59.50875 -40.3278125 59.50875 -41.9375 58.625 C-49.065714 52.9224288 -55.01596993 45.531327 -56.75 36.375 C-57.62241745 24.34708077 -56.60935997 14.64778113 -48.75 5.0625 C-35.47867466 -8.75904613 -15.69389004 -10.63202807 0 0 Z M-35.125 19 C-38.5115232 23.94953391 -38.31861774 28.49386791 -37.75 34.375 C-36.45655528 38.64492595 -34.14651756 41.0657163 -30.625 43.8125 C-26.14478039 46.04779236 -21.63785033 46.03048986 -16.75 45.375 C-11.46902596 43.58146165 -8.95104749 40.76500798 -5.75 36.375 C-4.15771352 31.59814057 -3.75566346 26.91657771 -5.62109375 22.1484375 C-8.33281326 17.40070563 -11.46950129 14.06475959 -16.75 12.375 C-24.47329634 11.06039637 -29.84753236 13.16700945 -35.125 19 Z " fill="#0C0C0C" transform="translate(61.75,213.625)"/>
<path d="M0 0 C7.01356858 4.99081474 12.48636129 11.08717135 16 19 C16 19.99 16 20.98 16 22 C19.44978462 22.04608491 22.65824866 21.90031335 26 21 C28.12338775 18.11617335 28.12338775 18.11617335 29.02734375 15.91015625 C31.39809073 11.25435193 36.05981269 8.18176247 40.75 6.125 C47.73525875 3.88648079 54.54144676 3.98217058 61.25 7 C67.69130754 10.6456367 72.30976719 15.4667088 74.9375 22.4375 C77.07987663 30.1952986 76.70290845 37.78057111 73 45 C68.6148467 51.39244179 63.65040417 56.13072649 56 58 C48.47403982 59.04833756 41.5004139 58.05471362 35 54 C31.14546861 50.47622048 27.66896935 47.00690806 26 42 C22.7 41.67 19.4 41.34 16 41 C15.938125 41.66 15.87625 42.32 15.8125 43 C13.62502504 51.07683062 7.59578385 58.25529575 0.46875 62.51171875 C-8.17973895 66.95042852 -16.22284926 68.50805231 -25.9140625 66.3515625 C-36.26968909 62.93858134 -44.00922742 56.74160417 -49 47 C-52.99303997 37.66778158 -53.30251667 28.02142757 -50.0390625 18.4140625 C-45.93603268 8.88145938 -39.69803608 2.51664068 -30.375 -1.875 C-20.19236326 -5.80313328 -9.60249011 -5.28564367 0 0 Z M-31.375 20.4375 C-34.58467122 25.49890461 -35.39088409 28.86781928 -34.53515625 34.7890625 C-33.3926636 39.50914163 -30.88803324 42.25324478 -27.25 45.3125 C-21.93967849 48.06978232 -17.46631134 48.72627647 -11.8125 46.9375 C-6.77138917 44.76853483 -4.401828 41.35761982 -1.625 36.6875 C-0.36867709 31.28531147 -1.18847653 26.59299052 -3.6875 21.6875 C-7.36673425 17.41163317 -10.79589594 14.96986146 -16.375 14 C-22.64345434 13.55602853 -27.07894512 16.02839105 -31.375 20.4375 Z " fill="#0C0C0C" transform="translate(100,279)"/>
<path d="M0 0 C0.66 0.33 1.32 0.66 2 1 C-2.29 5.29 -6.58 9.58 -11 14 C-11 10.30159372 -10.17133056 9.68584567 -7.75 7 C-7.14671875 6.319375 -6.5434375 5.63875 -5.921875 4.9375 C-4.06233388 3.06284066 -2.15205789 1.52358081 0 0 Z " fill="#5F5F5F" transform="translate(21,212)"/>
<path d="M0 0 C0.66 0.33 1.32 0.66 2 1 C-1.96 4.96 -5.92 8.92 -10 13 C-10 9.28115772 -9.1259934 8.63852271 -6.6875 5.9375 C-5.76517578 4.89916016 -5.76517578 4.89916016 -4.82421875 3.83984375 C-3 2 -3 2 0 0 Z " fill="#5D5D5D" transform="translate(20,26)"/>
<path d="M0 0 C0.66 0.33 1.32 0.66 2 1 C-1.96 4.96 -5.92 8.92 -10 13 C-10 9.28115772 -9.1259934 8.63852271 -6.6875 5.9375 C-5.76517578 4.89916016 -5.76517578 4.89916016 -4.82421875 3.83984375 C-3 2 -3 2 0 0 Z " fill="#686868" transform="translate(107,512)"/>
<path d="M0 0 C0.66 0.33 1.32 0.66 2 1 C-1.63 4.63 -5.26 8.26 -9 12 C-9 8.47601214 -8.44884893 7.98495633 -6.1875 5.4375 C-5.40439453 4.53837891 -5.40439453 4.53837891 -4.60546875 3.62109375 C-3 2 -3 2 0 0 Z " fill="#656565" transform="translate(18,486)"/>
<path d="M0 0 C0.66 0.33 1.32 0.66 2 1 C-1.63 4.63 -5.26 8.26 -9 12 C-9 8.47601214 -8.44884893 7.98495633 -6.1875 5.4375 C-5.40439453 4.53837891 -5.40439453 4.53837891 -4.60546875 3.62109375 C-3 2 -3 2 0 0 Z " fill="#696969" transform="translate(518,282)"/>
<path d="M0 0 C0.66 0.33 1.32 0.66 2 1 C-1.63 4.63 -5.26 8.26 -9 12 C-9 7.8407692 -6.75316432 5.85455565 -4 3 C-1.6875 1.125 -1.6875 1.125 0 0 Z " fill="#6D6D6D" transform="translate(177,38)"/>
<path d="M0 0 C-1.40844718 3.21524305 -3.10344786 5.32183868 -5.625 7.75 C-6.57246094 8.67039062 -6.57246094 8.67039062 -7.5390625 9.609375 C-8.02117187 10.06828125 -8.50328125 10.5271875 -9 11 C-9 7.25983417 -8.0658409 6.54723807 -5.625 3.8125 C-4.99851563 3.09707031 -4.37203125 2.38164062 -3.7265625 1.64453125 C-2 0 -2 0 0 0 Z " fill="#646464" transform="translate(137,288)"/>
<path d="M0 0 C0.66 0.33 1.32 0.66 2 1 C0.54782324 2.50596108 -0.91192861 4.00462104 -2.375 5.5 C-3.18710937 6.3353125 -3.99921875 7.170625 -4.8359375 8.03125 C-7 10 -7 10 -9 10 C-7.61811547 6.78956118 -6.07578097 4.95063635 -3.375 2.75 C-2.74335937 2.22921875 -2.11171875 1.7084375 -1.4609375 1.171875 C-0.73777344 0.59179688 -0.73777344 0.59179688 0 0 Z " fill="#686868" transform="translate(64,280)"/>
<path d="M0 0 C0.66 0.33 1.32 0.66 2 1 C-1.3 4.3 -4.6 7.6 -8 11 C-8.33 10.34 -8.66 9.68 -9 9 C-8.06725891 7.87105124 -7.12859878 6.74699124 -6.1875 5.625 C-5.66542969 4.99851563 -5.14335937 4.37203125 -4.60546875 3.7265625 C-3 2 -3 2 0 0 Z " fill="#686868" transform="translate(137,219)"/>
<path d="M0 0 C0.66 0.33 1.32 0.66 2 1 C-1.3 4.3 -4.6 7.6 -8 11 C-8 6.67750434 -5.85084926 5.11604454 -3 2 C-2.01 1.34 -1.02 0.68 0 0 Z " fill="#636363" transform="translate(303,130)"/>
<path d="M0 0 C0.66 0.33 1.32 0.66 2 1 C-1.3 4.3 -4.6 7.6 -8 11 C-8 7.0234755 -6.61988497 5.9109833 -4 3 C-1.75 1.1875 -1.75 1.1875 0 0 Z " fill="#717171" transform="translate(132,465)"/>
<path d="M0 0 C0.66 0.33 1.32 0.66 2 1 C-0.97 3.97 -3.94 6.94 -7 10 C-7 6.04435836 -5.59478606 4.89133304 -3 2 C-2.01 1.34 -1.02 0.68 0 0 Z " fill="#6E6E6E" transform="translate(403,219)"/>
<path d="M0 0 C0.66 0.33 1.32 0.66 2 1 C-0.64 3.64 -3.28 6.28 -6 9 C-6.66 8.67 -7.32 8.34 -8 8 C-5.58443874 4.80800833 -3.31996462 2.25283313 0 0 Z " fill="#727272" transform="translate(388,512)"/>
<path d="M0 0 C0.66 0.33 1.32 0.66 2 1 C-0.97 3.97 -3.94 6.94 -7 10 C-7 6.04435836 -5.59478606 4.89133304 -3 2 C-2.01 1.34 -1.02 0.68 0 0 Z " fill="#6F6F6F" transform="translate(135,356)"/>
<path d="M0 0 C0.99 0.33 1.98 0.66 3 1 C0.36 3.64 -2.28 6.28 -5 9 C-5 4.61031544 -2.87194899 3.23094261 0 0 Z " fill="#656565" transform="translate(231,132)"/>
</svg>
